<?xml version="1.0" encoding="utf-8"?>
<!-- Generator: Adobe Illustrator 25.4.0, SVG Export Plug-In . SVG Version: 6.00 Build 0)  -->
<svg version="1.1" id="Ebene_1" xmlns="http://www.w3.org/2000/svg" xmlns:xlink="http://www.w3.org/1999/xlink" x="0px" y="0px"
	 viewBox="0 0 100 100" style="enable-background:new 0 0 100 100;" xml:space="preserve">
<style type="text/css">
	.st0{fill:#005A9F;}
</style>
<path class="st0" d="M50,25.1c-9.2,0-16.7,7.5-16.7,16.7l0,0c0,9.2,7.5,16.7,16.7,16.7l0,0c9.2,0,16.7-7.5,16.7-16.7l0,0
	C66.7,32.5,59.2,25.1,50,25.1C50,25.1,50,25.1,50,25.1z M50,50.1c-4.6,0-8.3-3.7-8.3-8.3l0,0c0-4.6,3.7-8.3,8.3-8.3l0,0
	c4.6,0,8.3,3.7,8.3,8.3l0,0C58.3,46.3,54.6,50.1,50,50.1L50,50.1z"/>
<path class="st0" d="M83.8,37.4C81.3,22.3,69.3,10.6,54.2,8.7l-0.2,0c-1.2-0.1-2.6-0.2-4-0.2c-8.8,0-16.8,3.3-22.8,8.7l0,0
	c-7,6.3-11.4,15.4-11.4,25.5v0c0,6.3,1.7,12.2,4.7,17.2l-0.1-0.2c5.4,9.3,25.8,30,26.6,30.8c0.8,0.8,1.8,1.2,3,1.2h0
	c1.2,0,2.2-0.5,3-1.2l0,0c0.9-0.9,21-21.4,26.5-30.5c3-5,4.8-10.9,4.8-17.3c0-1.9-0.1-3.7-0.4-5.4L83.8,37.4L83.8,37.4z M72.3,55.7
	c-7.1,9.6-14.4,18-22.2,25.9l0,0c-8-7.9-15.3-16.4-22-25.5l-0.4-0.6c-2.2-3.7-3.5-8.1-3.5-12.9c0,0,0,0,0,0v0
	c0-7.7,3.3-14.5,8.6-19.3l0,0c4.5-4.1,10.5-6.5,17-6.5c0,0,0.1,0,0.1,0h0c0,0,0,0,0,0c1.1,0,2.2,0.1,3.3,0.2l-0.1,0
	c11.5,1.5,20.5,10.3,22.4,21.5l0,0.2c0.2,1.2,0.3,2.6,0.3,4c0,4.8-1.3,9.4-3.7,13.2C72.2,55.8,72.3,55.7,72.3,55.7z"/>
</svg>
