<svg id="Icons_--_Public_transport" data-name="Icons -- Public transport" xmlns="http://www.w3.org/2000/svg" width="24" height="24" viewBox="0 0 24 24">
  <rect id="Frame" width="24" height="24" fill="none"/>
  <g id="Row_2" data-name="Row 2" transform="translate(0 12)">
    <g id="mde_bus" transform="translate(12)">
      <rect id="Frame-2" data-name="Frame" width="12" height="12" fill="none"/>
      <g id="Bus" transform="translate(1 1)">
        <circle id="Ellipse_29" data-name="Ellipse 29" cx="5" cy="5" r="5" fill="#026778"/>
        <path id="Pfad_948" data-name="Pfad 948" d="M10.722,10.637a.917.917,0,0,1-.081.393.785.785,0,0,1-.219.287.988.988,0,0,1-.357.191,1.769,1.769,0,0,1-.491.057H8.38V8.535H9.443a3.4,3.4,0,0,1,.483.024.928.928,0,0,1,.305.108.557.557,0,0,1,.232.236.71.71,0,0,1,.077.336.722.722,0,0,1-.1.389.707.707,0,0,1-.3.26V9.9a.746.746,0,0,1,.424.244.726.726,0,0,1,.158.488m-.9-1.245a.355.355,0,0,0-.035-.151.215.215,0,0,0-.119-.112.523.523,0,0,0-.193-.035q-.114,0-.322,0H9.082v.641h.111q.167,0,.285-.006a.469.469,0,0,0,.186-.041.238.238,0,0,0,.125-.12.473.473,0,0,0,.029-.173m.173,1.233a.4.4,0,0,0-.051-.221.3.3,0,0,0-.171-.118.816.816,0,0,0-.228-.029l-.3,0H9.082v.756h.052l.426,0a.573.573,0,0,0,.237-.053.3.3,0,0,0,.151-.134.435.435,0,0,0,.042-.2m3.654-.157a1.143,1.143,0,0,1-.309.861,1.534,1.534,0,0,1-1.82,0,1.145,1.145,0,0,1-.307-.859V8.536h.71v1.889a.764.764,0,0,0,.119.47.46.46,0,0,0,.387.155.47.47,0,0,0,.386-.149.743.743,0,0,0,.123-.476V8.535h.71v1.933m2.853.144a.9.9,0,0,1-.344.729,1.43,1.43,0,0,1-.93.279,2.4,2.4,0,0,1-.594-.065,2.925,2.925,0,0,1-.472-.169v-.727h.077a1.6,1.6,0,0,0,.489.3,1.463,1.463,0,0,0,.522.1,1.529,1.529,0,0,0,.169-.012.621.621,0,0,0,.171-.041.411.411,0,0,0,.132-.092.248.248,0,0,0-.024-.334.494.494,0,0,0-.222-.112q-.154-.041-.327-.075a2.418,2.418,0,0,1-.322-.092,1.014,1.014,0,0,1-.5-.336.9.9,0,0,1-.151-.527.835.835,0,0,1,.342-.69,1.391,1.391,0,0,1,.882-.269,2.427,2.427,0,0,1,.533.059,2.271,2.271,0,0,1,.458.144v.7h-.075a1.4,1.4,0,0,0-.405-.244,1.259,1.259,0,0,0-.489-.1,1.106,1.106,0,0,0-.177.014.611.611,0,0,0-.167.049.318.318,0,0,0-.123.094.212.212,0,0,0-.051.14.221.221,0,0,0,.083.184.886.886,0,0,0,.313.116l.289.067a2.776,2.776,0,0,1,.3.09.978.978,0,0,1,.463.311.809.809,0,0,1,.151.509" transform="translate(-7.44 -5.042)" fill="#fff" stroke="#fff" stroke-miterlimit="10" stroke-width="0.031"/>
      </g>
    </g>
    <g id="mde_tram">
      <rect id="Frame-3" data-name="Frame" width="12" height="12" fill="none"/>
      <g id="Tram" transform="translate(1 1)">
        <rect id="Rechteck_610" data-name="Rechteck 610" width="10" height="10" rx="1" fill="#cd151a"/>
        <path id="Pfad_955" data-name="Pfad 955" d="M6.145,11.418a.524.524,0,0,0,.256-.184l.045-.056v.056a.97.97,0,0,0,.013.129l.012.073h.6V10.67c0-.849-.006-.9-.126-1.049a.8.8,0,0,0-.363-.243,2.457,2.457,0,0,0-1.044.032l-.075.021v.461l.106-.029a2.359,2.359,0,0,1,.387-.039c.272-.01.284-.008.352.036a.234.234,0,0,1,.121.213v.07l-.256.012a1.127,1.127,0,0,0-.763.232.541.541,0,0,0-.173.454.563.563,0,0,0,.19.487.773.773,0,0,0,.114.09c.007,0,.058.014.113.029A.925.925,0,0,0,6.145,11.418Zm-.174-.389a.269.269,0,0,1-.1-.27c.02-.175.138-.256.4-.273l.16-.011v.164c0,.265-.1.4-.3.42a.233.233,0,0,1-.16-.03Zm-2.54-.763V9.1h.7V8.531H1.982V9.1h.643v2.34h.805Zm1.186.686c0-.524.017-.671.092-.8s.164-.169.374-.179L5.26,9.97V9.326l-.128.013a.555.555,0,0,0-.395.161.777.777,0,0,0-.12.168c-.035.075-.038.077-.048.033-.006-.026-.016-.108-.023-.179L4.533,9.39h-.64v2.047h.724ZM8.2,10.812c0-.66.006-.708.1-.786a.36.36,0,0,1,.255-.045.187.187,0,0,1,.092.076c.037.059.039.1.04.721v.658h.7v-.619c0-.566,0-.626.039-.7a.253.253,0,0,1,.377-.1l.056.047.006.684.006.684h.725l-.006-.824c-.006-.8-.007-.826-.05-.916a.675.675,0,0,0-.313-.309.943.943,0,0,0-.552-.011.744.744,0,0,0-.326.254l-.028.051-.065-.093a.684.684,0,0,0-.933-.121.458.458,0,0,0-.11.141l-.052.1V9.39H7.472v2.047H8.2Z" transform="translate(-1.287 -5.151)" fill="#fff"/>
      </g>
    </g>
  </g>
  <g id="Row_1" data-name="Row 1">
    <g id="mde_u-bahn" transform="translate(12)">
      <rect id="Frame-4" data-name="Frame" width="12" height="12" fill="none"/>
      <g id="U-Bahn" transform="translate(1 1)">
        <rect id="Rechteck_604" data-name="Rechteck 604" width="10" height="10" rx="1" fill="#1f3d8a"/>
        <path id="Pfad_952" data-name="Pfad 952" d="M12.522,9.453a3.965,3.965,0,0,0,1.77-.584,3.274,3.274,0,0,0,.745-.708A3.06,3.06,0,0,0,15.5,7.043c.033-.16.037-.442.044-3.061L15.555,1.1H13.517V3.738c0,1.736-.008,2.709-.023,2.841a2.064,2.064,0,0,1-.187.661,1.144,1.144,0,0,1-.484.448,1.656,1.656,0,0,1-1.7-.2,1.475,1.475,0,0,1-.375-.852c-.013-.091-.022-1.159-.022-2.843V1.1H8.714V3.829a20.3,20.3,0,0,0,.078,3.318A2.759,2.759,0,0,0,10.363,9.09,4.223,4.223,0,0,0,12.522,9.453Z" transform="translate(-7.117 -0.284)" fill="#fff"/>
      </g>
    </g>
    <g id="mde_s-bahn">
      <rect id="Frame-5" data-name="Frame" width="12" height="12" fill="none"/>
      <g id="S-Bahn" transform="translate(1 1)">
        <circle id="Ellipse_30" data-name="Ellipse 30" cx="5" cy="5" r="5" fill="#037036"/>
        <path id="Pfad_950" data-name="Pfad 950" d="M5.656,1.345a2.644,2.644,0,0,0-2.9,2.333c0,2.893,4.529,1.854,4.529,3.531,0,.444-.6.861-1.354.861a4.015,4.015,0,0,1-3.111-1.65V7.963a5.206,5.206,0,0,0,3.111,1.1A2.936,2.936,0,0,0,9.124,6.49c0-2.946-4.6-1.686-4.6-3.478,0-.426.4-.79,1.107-.79a4.252,4.252,0,0,1,3.01,1.384V2.32a4.923,4.923,0,0,0-2.983-.976Z" transform="translate(-0.942 -0.205)" fill="#fff"/>
      </g>
    </g>
  </g>
</svg>
