<svg id="mde_icon-instagram" xmlns="http://www.w3.org/2000/svg" width="56" height="56" viewBox="0 0 56 56">
    <rect id="Frame" width="56" height="56" fill="none"/>
    <path id="raw-icon" d="M23.333,13.606A11.965,11.965,0,1,0,35.3,25.571,11.944,11.944,0,0,0,23.333,13.606Zm0,19.743a7.779,7.779,0,1,1,7.777-7.779,7.792,7.792,0,0,1-7.777,7.779ZM38.575,13.117a2.79,2.79,0,1,1-2.79-2.791A2.784,2.784,0,0,1,38.575,13.117ZM46.5,15.949c-.177-3.738-1.031-7.05-3.769-9.778S36.69,2.589,32.953,2.4c-3.852-.219-15.4-.219-19.25,0-3.727.177-7.038,1.031-9.776,3.759S.346,12.2.159,15.939c-.219,3.853-.219,15.4,0,19.254.177,3.738,1.031,7.05,3.769,9.778s6.038,3.582,9.776,3.77c3.852.219,15.4.219,19.25,0,3.737-.177,7.048-1.031,9.776-3.77s3.581-6.04,3.769-9.778c.219-3.853.219-15.391,0-19.244ZM41.521,39.327a7.874,7.874,0,0,1-4.435,4.436c-3.071,1.218-10.359.937-13.753.937s-10.692.271-13.753-.937a7.874,7.874,0,0,1-4.435-4.436c-1.218-3.072-.937-10.361-.937-13.756s-.271-10.694.937-13.756A7.874,7.874,0,0,1,9.581,7.379c3.071-1.218,10.359-.937,13.753-.937s10.692-.271,13.753.937a7.874,7.874,0,0,1,4.435,4.436c1.218,3.072.937,10.361.937,13.756S42.739,36.265,41.521,39.327Z" transform="translate(4.672 2.429)"/>
</svg>
